<svg width="53" height="53" viewBox="0 0 53 53" fill="none" xmlns="http://www.w3.org/2000/svg">
<g id="fluent:edit-16-filled">
<path id="Vector" d="M34.8773 5.84326C35.6836 5.03699 36.6408 4.39741 37.6943 3.96105C38.7477 3.5247 39.8768 3.30011 41.017 3.30011C42.1573 3.30011 43.2864 3.5247 44.3398 3.96105C45.3933 4.39741 46.3505 5.03699 47.1568 5.84326C47.963 6.64954 48.6026 7.60674 49.039 8.66019C49.4753 9.71365 49.6999 10.8427 49.6999 11.983C49.6999 13.1232 49.4753 14.2523 49.039 15.3058C48.6026 16.3592 47.963 17.3164 47.1568 18.1227L44.5763 20.7031L32.2969 8.4237L34.8773 5.84326ZM29.955 10.7656L8.80133 31.9193C7.56288 33.1585 6.67974 34.7074 6.24408 36.4044L3.3622 47.6205C3.29073 47.8996 3.29329 48.1925 3.36962 48.4703C3.44596 48.748 3.59342 49.0011 3.79745 49.2045C4.00149 49.4078 4.25504 49.5545 4.53307 49.6299C4.8111 49.7053 5.10399 49.7069 5.38283 49.6345L16.5956 46.756C18.2929 46.321 19.842 45.4378 21.0808 44.1987L42.2344 23.0451L29.955 10.7656Z" fill="white"/>
</g>
</svg>
