<svg width="40" height="35" viewBox="0 0 40 35" fill="none" xmlns="http://www.w3.org/2000/svg">
<g id="fluent-mdl2:feedback" clip-path="url(#clip0_27_167)">
<path id="Vector" d="M18.7109 25.9375C20.026 26.4583 21.224 27.1484 22.3047 28.0078C23.3854 28.8672 24.3099 29.8633 25.0781 30.9961C25.8464 32.1289 26.4388 33.3464 26.8555 34.6484C27.2721 35.9505 27.487 37.3177 27.5 38.75V40H25V38.75C25 37.2005 24.707 35.7422 24.1211 34.375C23.5352 33.0078 22.7279 31.8164 21.6992 30.8008C20.6706 29.7852 19.4792 28.9844 18.125 28.3984C16.7708 27.8125 15.3125 27.513 13.75 27.5C12.2005 27.5 10.7422 27.793 9.375 28.3789C8.00781 28.9648 6.81641 29.7721 5.80078 30.8008C4.78516 31.8294 3.98438 33.0208 3.39844 34.375C2.8125 35.7292 2.51302 37.1875 2.5 38.75V40H0V38.75C0 37.3307 0.208333 35.9635 0.625 34.6484C1.04167 33.3333 1.64062 32.1159 2.42188 30.9961C3.20312 29.8763 4.1276 28.8867 5.19531 28.0273C6.26302 27.168 7.46094 26.4714 8.78906 25.9375C8.20312 25.5339 7.67578 25.0651 7.20703 24.5312C6.73828 23.9974 6.34115 23.4245 6.01562 22.8125C5.6901 22.2005 5.44271 21.5495 5.27344 20.8594C5.10417 20.1693 5.01302 19.4661 5 18.75C5 17.5391 5.22786 16.4062 5.68359 15.3516C6.13932 14.2969 6.76432 13.3724 7.55859 12.5781C8.35286 11.7839 9.27734 11.1589 10.332 10.7031C11.3867 10.2474 12.526 10.013 13.75 10C14.9609 10 16.0938 10.2279 17.1484 10.6836C18.2031 11.1393 19.1276 11.7643 19.9219 12.5586C20.7161 13.3529 21.3411 14.2773 21.7969 15.332C22.2526 16.3867 22.487 17.526 22.5 18.75C22.5 19.4661 22.4154 20.1628 22.2461 20.8398C22.0768 21.5169 21.8229 22.168 21.4844 22.793C21.1458 23.418 20.7487 23.9974 20.293 24.5312C19.8372 25.0651 19.3099 25.5339 18.7109 25.9375ZM13.75 25C14.6094 25 15.4167 24.8372 16.1719 24.5117C16.9271 24.1862 17.5846 23.7435 18.1445 23.1836C18.7044 22.6237 19.1536 21.9596 19.4922 21.1914C19.8307 20.4232 20 19.6094 20 18.75C20 17.8906 19.8372 17.0833 19.5117 16.3281C19.1862 15.5729 18.737 14.9154 18.1641 14.3555C17.5911 13.7956 16.9271 13.3464 16.1719 13.0078C15.4167 12.6693 14.6094 12.5 13.75 12.5C12.8906 12.5 12.0833 12.6628 11.3281 12.9883C10.5729 13.3138 9.90885 13.763 9.33594 14.3359C8.76302 14.9089 8.3138 15.5729 7.98828 16.3281C7.66276 17.0833 7.5 17.8906 7.5 18.75C7.5 19.6094 7.66276 20.4167 7.98828 21.1719C8.3138 21.9271 8.75651 22.5911 9.31641 23.1641C9.8763 23.737 10.5404 24.1862 11.3086 24.5117C12.0768 24.8372 12.8906 25 13.75 25ZM40 0V20H35L27.5 27.5V20H25V17.5H30V21.4648L33.9648 17.5H37.5V2.5H12.5V6.99219C12.0833 7.04427 11.6667 7.10938 11.25 7.1875C10.8333 7.26562 10.4167 7.38281 10 7.53906V0H40Z" fill="white"/>
</g>
<defs>
<clipPath id="clip0_27_167">
<rect width="40" height="40" fill="white"/>
</clipPath>
</defs>
</svg>
