<svg width="40" height="35" viewBox="0 0 40 35" fill="none" xmlns="http://www.w3.org/2000/svg">
<g id="ion:stats-chart">
<path id="Vector" d="M8.125 38.75H5.625C5.12772 38.75 4.65081 38.5525 4.29917 38.2008C3.94754 37.8492 3.75 37.3723 3.75 36.875V25.625C3.75 25.1277 3.94754 24.6508 4.29917 24.2992C4.65081 23.9475 5.12772 23.75 5.625 23.75H8.125C8.62228 23.75 9.09919 23.9475 9.45083 24.2992C9.80246 24.6508 10 25.1277 10 25.625V36.875C10 37.3723 9.80246 37.8492 9.45083 38.2008C9.09919 38.5525 8.62228 38.75 8.125 38.75ZM25.625 38.75H23.125C22.6277 38.75 22.1508 38.5525 21.7992 38.2008C21.4475 37.8492 21.25 37.3723 21.25 36.875V18.125C21.25 17.6277 21.4475 17.1508 21.7992 16.7992C22.1508 16.4475 22.6277 16.25 23.125 16.25H25.625C26.1223 16.25 26.5992 16.4475 26.9508 16.7992C27.3025 17.1508 27.5 17.6277 27.5 18.125V36.875C27.5 37.3723 27.3025 37.8492 26.9508 38.2008C26.5992 38.5525 26.1223 38.75 25.625 38.75ZM34.375 38.75H31.875C31.3777 38.75 30.9008 38.5525 30.5492 38.2008C30.1975 37.8492 30 37.3723 30 36.875V9.375C30 8.87772 30.1975 8.40081 30.5492 8.04917C30.9008 7.69754 31.3777 7.5 31.875 7.5H34.375C34.8723 7.5 35.3492 7.69754 35.7008 8.04917C36.0525 8.40081 36.25 8.87772 36.25 9.375V36.875C36.25 37.3723 36.0525 37.8492 35.7008 38.2008C35.3492 38.5525 34.8723 38.75 34.375 38.75ZM16.875 38.75H14.375C13.8777 38.75 13.4008 38.5525 13.0492 38.2008C12.6975 37.8492 12.5 37.3723 12.5 36.875V3.125C12.5 2.62772 12.6975 2.15081 13.0492 1.79917C13.4008 1.44754 13.8777 1.25 14.375 1.25H16.875C17.3723 1.25 17.8492 1.44754 18.2008 1.79917C18.5525 2.15081 18.75 2.62772 18.75 3.125V36.875C18.75 37.3723 18.5525 37.8492 18.2008 38.2008C17.8492 38.5525 17.3723 38.75 16.875 38.75Z" fill="white"/>
</g>
</svg>
