<svg width="40" height="35" viewBox="0 0 40 35" fill="none" xmlns="http://www.w3.org/2000/svg">
<g id="tabler:music">
<g id="Group">
<path id="Vector" d="M5 28.3333C5 29.6594 5.52678 30.9312 6.46447 31.8689C7.40215 32.8066 8.67392 33.3333 10 33.3333C11.3261 33.3333 12.5979 32.8066 13.5355 31.8689C14.4732 30.9312 15 29.6594 15 28.3333C15 27.0073 14.4732 25.7355 13.5355 24.7978C12.5979 23.8601 11.3261 23.3333 10 23.3333C8.67392 23.3333 7.40215 23.8601 6.46447 24.7978C5.52678 25.7355 5 27.0073 5 28.3333ZM21.6667 28.3333C21.6667 29.6594 22.1934 30.9312 23.1311 31.8689C24.0688 32.8066 25.3406 33.3333 26.6667 33.3333C27.9927 33.3333 29.2645 32.8066 30.2022 31.8689C31.1399 30.9312 31.6667 29.6594 31.6667 28.3333C31.6667 27.0073 31.1399 25.7355 30.2022 24.7978C29.2645 23.8601 27.9927 23.3333 26.6667 23.3333C25.3406 23.3333 24.0688 23.8601 23.1311 24.7978C22.1934 25.7355 21.6667 27.0073 21.6667 28.3333Z" stroke="black" stroke-width="3.33333" stroke-linecap="round" stroke-linejoin="round"/>
<path id="Vector_2" d="M15 28.3333V6.66667H31.6667V28.3333M15 13.3333H31.6667" stroke="black" stroke-width="3.33333" stroke-linecap="round" stroke-linejoin="round"/>
</g>
</g>
</svg>
